<svg width="42" height="44" viewBox="0 0 42 44" fill="none" xmlns="http://www.w3.org/2000/svg">
<path d="M21 22C25.8325 22 29.75 17.8959 29.75 12.8333C29.75 7.77068 25.8325 3.66663 21 3.66663C16.1675 3.66663 12.25 7.77068 12.25 12.8333C12.25 17.8959 16.1675 22 21 22Z" stroke="#F3F3F3" stroke-width="1.5" stroke-linecap="round" stroke-linejoin="round"/>
<path d="M5.96753 40.3333C5.96753 33.2383 12.705 27.5 21 27.5C22.68 27.5 24.3075 27.7383 25.83 28.1783" stroke="#F3F3F3" stroke-width="1.5" stroke-linecap="round" stroke-linejoin="round"/>
<path d="M38.5 33C38.5 33.5866 38.43 34.1549 38.29 34.7049C38.1325 35.4383 37.8525 36.1533 37.485 36.7766C36.2775 38.9033 34.055 40.3333 31.5 40.3333C29.6975 40.3333 28.07 39.6182 26.845 38.4449C26.32 37.9682 25.865 37.4 25.515 36.7766C24.8675 35.6766 24.5 34.375 24.5 33C24.5 31.02 25.2525 29.205 26.4775 27.885C27.755 26.51 29.54 25.6666 31.5 25.6666C33.565 25.6666 35.4375 26.6017 36.6975 28.105C37.8175 29.4067 38.5 31.13 38.5 33Z" stroke="#F3F3F3" stroke-width="1.5" stroke-miterlimit="10" stroke-linecap="round" stroke-linejoin="round"/>
<path d="M34.1075 32.9634H28.8925" stroke="#F3F3F3" stroke-width="1.5" stroke-miterlimit="10" stroke-linecap="round" stroke-linejoin="round"/>
<path d="M31.5 30.2867V35.7684" stroke="#F3F3F3" stroke-width="1.5" stroke-miterlimit="10" stroke-linecap="round" stroke-linejoin="round"/>
</svg>
